HIERARCHY
ROOT Hips
{
  OFFSET 5.84602e-005 68.8428 3.50346
  CHANNELS 6 Xposition Yposition Zposition Zrotation Xrotation Yrotation
  JOINT Spine
  {
    OFFSET 0 8.597 -4.6522
    CHANNELS 3 Zrotation Xrotation Yrotation
    JOINT Spine1
    {
      OFFSET 0 7.8454 0.4098
      CHANNELS 3 Zrotation Xrotation Yrotation
      JOINT Spine2
      {
        OFFSET 0 9.7078 -2.1609
        CHANNELS 3 Zrotation Xrotation Yrotation
        JOINT Neck
        {
          OFFSET 0 21.8761 -0.4549
          CHANNELS 3 Zrotation Xrotation Yrotation
          JOINT Head
          {
            OFFSET 0 12.3537 3.3602
            CHANNELS 3 Zrotation Xrotation Yrotation
            End Site
            {
              OFFSET 0.0001 18.9506 0.5657
            }
          }
        }
        JOINT LeftShoulder
        {
          OFFSET 2.2086 21.1115 7.2329
          CHANNELS 3 Zrotation Xrotation Yrotation
          JOINT LeftArm
          {
            OFFSET 13.1193 3.0282 -4.8998
            CHANNELS 3 Zrotation Xrotation Yrotation
            JOINT LeftForeArm
            {
              OFFSET 27.4081 -0.0973053 -0.2375
              CHANNELS 3 Zrotation Xrotation Yrotation
              JOINT LeftHand
              {
                OFFSET 22.8641 0.0662994 -0.1369
                CHANNELS 3 Zrotation Xrotation Yrotation
                JOINT LeftHandIndex1
                {
                  OFFSET 8.8614 0.775009 2.4612
                  CHANNELS 3 Zrotation Xrotation Yrotation
                  JOINT LeftHandIndex2
                  {
                    OFFSET 3.3146 -0.808304 0.5841
                    CHANNELS 3 Zrotation Xrotation Yrotation
                    JOINT LeftHandIndex3
                    {
                      OFFSET 2.2628 -0.552002 0.3989
                      CHANNELS 3 Zrotation Xrotation Yrotation
                      End Site
                      {
                        OFFSET 1.6102 -0.4807 0.2612
                      }
                    }
                  }
                }
                JOINT LeftHandMiddle1
                {
                  OFFSET 8.9937 0.895004 0.2143
                  CHANNELS 3 Zrotation Xrotation Yrotation
                  JOINT LeftHandMiddle2
                  {
                    OFFSET 4.0984 0.0113983 -0.0242
                    CHANNELS 3 Zrotation Xrotation Yrotation
                    JOINT LeftHandMiddle3
                    {
                      OFFSET 2.2716 0.00689697 -0.0138001
                      CHANNELS 3 Zrotation Xrotation Yrotation
                      End Site
                      {
                        OFFSET 2.0404 -0.1441 0.0027
                      }
                    }
                  }
                }
                JOINT LeftHandRing1
                {
                  OFFSET 8.5234 0.597198 -2.0164
                  CHANNELS 3 Zrotation Xrotation Yrotation
                  JOINT LeftHandRing2
                  {
                    OFFSET 3.7188 -0.188293 -0.2328
                    CHANNELS 3 Zrotation Xrotation Yrotation
                    JOINT LeftHandRing3
                    {
                      OFFSET 2.1191 -0.106598 -0.1332
                      CHANNELS 3 Zrotation Xrotation Yrotation
                      End Site
                      {
                        OFFSET 1.8737 -0.2304 -0.0886
                      }
                    }
                  }
                }
                JOINT LeftHandPinky1
                {
                  OFFSET 7.9094 -0.601089 -3.4825
                  CHANNELS 3 Zrotation Xrotation Yrotation
                  JOINT LeftHandPinky2
                  {
                    OFFSET 2.2874 -0.477005 -0.6314
                    CHANNELS 3 Zrotation Xrotation Yrotation
                    JOINT LeftHandPinky3
                    {
                      OFFSET 1.6774 -0.349396 -0.4633
                      CHANNELS 3 Zrotation Xrotation Yrotation
                      End Site
                      {
                        OFFSET 1.4888 -0.4091 -0.3416
                      }
                    }
                  }
                }
                JOINT LeftHandThumb1
                {
                  OFFSET 1.833 -1.3875 1.3896
                  CHANNELS 3 Zrotation Xrotation Yrotation
                  JOINT LeftHandThumb2
                  {
                    OFFSET 3.4129 -1.121 2.5732
                    CHANNELS 3 Zrotation Xrotation Yrotation
                    JOINT LeftHandThumb3
                    {
                      OFFSET 2.2474 -0.804199 1.6192
                      CHANNELS 3 Zrotation Xrotation Yrotation
                      End Site
                      {
                        OFFSET 1.6527 -0.5689 1.1317
                      }
                    }
                  }
                }
              }
            }
          }
        }
        JOINT RightShoulder
        {
          OFFSET -2.2086 21.1115 7.2329
          CHANNELS 3 Zrotation Xrotation Yrotation
          JOINT RightArm
          {
            OFFSET -13.1216 3.0287 -4.9007
            CHANNELS 3 Zrotation Xrotation Yrotation
            JOINT RightForeArm
            {
              OFFSET -27.4081 -0.0973053 -0.2375
              CHANNELS 3 Zrotation Xrotation Yrotation
              JOINT RightHand
              {
                OFFSET -22.8641 0.0664063 -0.1369
                CHANNELS 3 Zrotation Xrotation Yrotation
                JOINT RightHandIndex1
                {
                  OFFSET -8.8614 0.774994 2.4612
                  CHANNELS 3 Zrotation Xrotation Yrotation
                  JOINT RightHandIndex2
                  {
                    OFFSET -3.3146 -0.808304 0.5841
                    CHANNELS 3 Zrotation Xrotation Yrotation
                    JOINT RightHandIndex3
                    {
                      OFFSET -2.2628 -0.552002 0.3989
                      CHANNELS 3 Zrotation Xrotation Yrotation
                      End Site
                      {
                        OFFSET -1.6102 -0.4807 0.2612
                      }
                    }
                  }
                }
                JOINT RightHandMiddle1
                {
                  OFFSET -8.9937 0.894989 0.2143
                  CHANNELS 3 Zrotation Xrotation Yrotation
                  JOINT RightHandMiddle2
                  {
                    OFFSET -4.0984 0.0113983 -0.0242
                    CHANNELS 3 Zrotation Xrotation Yrotation
                    JOINT RightHandMiddle3
                    {
                      OFFSET -2.2716 0.00691223 -0.0138001
                      CHANNELS 3 Zrotation Xrotation Yrotation
                      End Site
                      {
                        OFFSET -2.0404 -0.1441 0.0027
                      }
                    }
                  }
                }
                JOINT RightHandRing1
                {
                  OFFSET -8.5234 0.597198 -2.0164
                  CHANNELS 3 Zrotation Xrotation Yrotation
                  JOINT RightHandRing2
                  {
                    OFFSET -3.7188 -0.188309 -0.2328
                    CHANNELS 3 Zrotation Xrotation Yrotation
                    JOINT RightHandRing3
                    {
                      OFFSET -2.1191 -0.106598 -0.1332
                      CHANNELS 3 Zrotation Xrotation Yrotation
                      End Site
                      {
                        OFFSET -1.8737 -0.2304 -0.0886
                      }
                    }
                  }
                }
                JOINT RightHandPinky1
                {
                  OFFSET -7.9094 -0.601105 -3.4825
                  CHANNELS 3 Zrotation Xrotation Yrotation
                  JOINT RightHandPinky2
                  {
                    OFFSET -2.2874 -0.477005 -0.6314
                    CHANNELS 3 Zrotation Xrotation Yrotation
                    JOINT RightHandPinky3
                    {
                      OFFSET -1.6774 -0.349396 -0.4633
                      CHANNELS 3 Zrotation Xrotation Yrotation
                      End Site
                      {
                        OFFSET -1.4888 -0.4091 -0.3416
                      }
                    }
                  }
                }
                JOINT RightHandThumb1
                {
                  OFFSET -1.833 -1.38751 1.3896
                  CHANNELS 3 Zrotation Xrotation Yrotation
                  JOINT RightHandThumb2
                  {
                    OFFSET -3.41299 -1.12099 2.5732
                    CHANNELS 3 Zrotation Xrotation Yrotation
                    JOINT RightHandThumb3
                    {
                      OFFSET -2.24741 -0.804108 1.6192
                      CHANNELS 3 Zrotation Xrotation Yrotation
                      End Site
                      {
                        OFFSET -1.6527 -0.5689 1.1317
                      }
                    }
                  }
                }
              }
            }
          }
        }
      }
    }
  }
  JOINT RightUpLeg
  {
    OFFSET -9.1966 3.8861 -0.7581
    CHANNELS 3 Zrotation Xrotation Yrotation
    JOINT RightLeg
    {
      OFFSET -0.7359 -41.0265 0
      CHANNELS 3 Zrotation Xrotation Yrotation
      JOINT RightFoot
      {
        OFFSET 0 -40.2855 0
        CHANNELS 3 Zrotation Xrotation Yrotation
        JOINT RightToeBase
        {
          OFFSET 0 -5.6122 11.7359
          CHANNELS 3 Zrotation Xrotation Yrotation
          End Site
          {
            OFFSET 0 0 7.8731
          }
        }
      }
    }
  }
  JOINT LeftUpLeg
  {
    OFFSET 9.1965 3.8864 -0.7581
    CHANNELS 3 Zrotation Xrotation Yrotation
    JOINT LeftLeg
    {
      OFFSET 0.7359 -41.0268 0
      CHANNELS 3 Zrotation Xrotation Yrotation
      JOINT LeftFoot
      {
        OFFSET 0 -40.2855 0
        CHANNELS 3 Zrotation Xrotation Yrotation
        JOINT LeftToeBase
        {
          OFFSET 0 -5.6122 11.7359
          CHANNELS 3 Zrotation Xrotation Yrotation
          End Site
          {
            OFFSET 0 0 7.8731
          }
        }
      }
    }
  }
}
MOTION
Frames:	4
Frame Time:	0.0333333
5.84602e-005 68.8428 3.50346 0 0 -0 0 0 -0 0 0 -0 0 0 -0 0 0 -0 0 0 -0 0 0 -0 0 0 -0 0 0 -0 0 0 -0 0 0 -0 0 0 -0 0 0 -0 0 0 -0 -0.0146107 -8.87603e-005 -2.63497e-007 2.99804e-018 -2.42657e-020 -1.42182e-022 0 0 -0 -0.0187562 -0.001176 5.858e-005 5.06224e-018 3.88251e-019 1.21329e-020 0 0 -0 -0.012269 -0.00324817 0.000675346 -1.74678e-018 3.88251e-019 -0 0 0 -0 0 0 -0 0 0 -0 0 0 -0 0 0 -0 0 0 -0 0 0 -0 0 0 -0 0 0 -0 0 0 -0 0 0 -0 0.0149955 -9.10982e-005 2.64101e-007 -9.69331e-018 1.21329e-020 -4.7394e-023 0 0 -0 0.0189956 -0.00119102 -5.96516e-005 -5.41541e-019 0 2.42657e-020 0 0 -0 0.0122698 -0.00324857 -0.000673756 -2.00796e-019 0 -1.94126e-019 0 0 -0 0 0 -0 0 0 -0 3.39842 1.33031 -0.0637918 -5.65207e-008 0.834868 -0.000436188 -3.39935 -2.16518 -0.0642563 -8.89002e-024 -1.18485e-023 -1.48106e-024 -3.39844 1.35642 0.0640283 -3.18788e-007 0.782166 -0.000588827 3.39931 -2.13858 0.0634662 1.1399e-023 0 -0 
2.91649e-005 -1.19595 8.43461 -0 -88.0745 -0 -0.0200938 -3.32597 -0.164461 -0.0498956 -6.65184 -0.330931 -0.0498956 -6.65185 -0.330931 2.21681e-006 19.3315 -2.81775e-006 -0.00119339 9.68331 -0.0362634 -17.0373 15.3826 4.26861 -74.3343 -7.11372 -56.7914 -16.5993 37.5192 0.386015 -45.1894 -24.4628 9.12067 1.69847e-006 -1.93985e-006 -4.06288e-006 2.87509e-006 9.40825e-007 -4.82612e-006 2.58132e-007 -1.35154e-006 -3.47178e-006 1.69847e-006 -1.93985e-006 -4.06288e-006 -0.0146055 -8.5988e-005 -9.26311e-007 2.58028e-007 -1.3511e-006 -3.47195e-006 1.69847e-006 -1.93985e-006 -4.06288e-006 -0.0187274 -0.00116771 5.18983e-005 -1.10929e-006 1.69661e-006 -7.22387e-006 1.69847e-006 -1.93985e-006 -4.06288e-006 -0.0122617 -0.00324148 0.0006754 2.57941e-007 -1.3512e-006 -3.47193e-006 1.69847e-006 -1.93985e-006 -4.06288e-006 2.87509e-006 9.40825e-007 -4.82612e-006 2.58132e-007 -1.35154e-006 -3.47178e-006 17.0302 15.3795 -4.27697 74.3314 -7.11605 56.7881 16.5961 37.5188 -0.386215 45.1843 -24.4638 -9.12532 -2.8292e-006 9.05748e-007 4.87338e-006 -1.34304e-007 2.45728e-007 7.56309e-007 -2.35417e-007 -1.38416e-006 3.46909e-006 -2.8292e-006 9.05748e-007 4.87338e-006 0.0150152 -9.47177e-005 5.47934e-006 7.16224e-008 1.89935e-007 5.63052e-006 -2.8292e-006 9.05748e-007 4.87338e-006 0.0189841 -0.00119048 -6.63727e-005 7.11952e-008 1.90262e-007 5.63052e-006 -2.8292e-006 9.05748e-007 4.87338e-006 0.0122398 -0.00324357 -0.000681865 -2.3523e-007 -1.38382e-006 3.46924e-006 -2.8292e-006 9.05748e-007 4.87338e-006 -1.34304e-007 2.45728e-007 7.56309e-007 -2.35417e-007 -1.38416e-006 3.46909e-006 -19.6054 -15.2278 -54.5966 -2.34801 52.5714 0.0731886 -4.11988 15.3085 0.829111 -1.41262e-005 4.46302e-007 -2.2497e-006 19.6269 -15.204 54.6595 2.34498 52.5714 -0.0748674 4.16906 15.3023 -0.902584 -3.18055e-015 1.59028e-014 -1.59028e-015 
-0.000219878 3.80292 8.60661 -0 -82.0004 -0 -0.017603 -3.27013 -0.153033 -0.044079 -6.54018 -0.307828 -0.0440793 -6.54019 -0.307828 3.25717e-006 17.9984 -1.15488e-006 -0.0101511 9.11547 -0.232727 -15.5206 15.2509 4.72252 -69.0537 -6.87852 -52.9989 -15.7155 34.86 0.35648 -42.3439 -22.8118 8.38365 -1.35313e-006 6.66598e-007 6.79467e-007 -2.70626e-006 1.3332e-006 1.35893e-006 -1.35313e-006 6.66599e-007 6.79467e-007 -1.35313e-006 6.66598e-007 6.79467e-007 -0.014602 -8.51351e-005 3.11822e-006 -1.35318e-006 6.66512e-007 6.79553e-007 -1.35313e-006 6.66598e-007 6.79467e-007 -0.01876 -0.00116973 5.35512e-005 -1.35319e-006 6.66484e-007 6.7959e-007 -1.35313e-006 6.66598e-007 6.79467e-007 -0.0122431 -0.00324368 0.000675685 -1.35315e-006 6.66522e-007 6.79579e-007 -1.35313e-006 6.66598e-007 6.79467e-007 -2.70626e-006 1.3332e-006 1.35893e-006 -1.35313e-006 6.66599e-007 6.79467e-007 15.4929 15.2333 -4.75774 69.057 -6.87043 52.9971 15.7205 34.857 -0.356621 42.3393 -22.8128 -8.38791 1.27222e-014 -1.59028e-015 -3.18055e-015 1.31711e-006 2.20224e-006 -4.06849e-006 3.18055e-015 -6.36111e-015 -0 1.27222e-014 -1.59028e-015 -3.18055e-015 0.0150195 -9.27732e-005 2.04968e-006 6.36111e-015 7.95139e-015 -0 1.27222e-014 -1.59028e-015 -3.18055e-015 0.0190088 -0.00119115 -5.76575e-005 -1.27222e-014 -2.8625e-014 1.27222e-014 1.27222e-014 -1.59028e-015 -3.18055e-015 0.0122785 -0.00324523 -0.000679009 9.83174e-007 3.75313e-007 -4.35406e-007 1.27222e-014 -1.59028e-015 -3.18055e-015 1.31711e-006 2.20224e-006 -4.06849e-006 3.18055e-015 -6.36111e-015 -0 -16.5627 -15.0171 -49.5877 -1.96798 48.761 -0.0803771 -3.31123 14.2163 -0.134963 1.90158e-006 -3.68334e-007 -4.00097e-006 16.7262 -14.8677 50.0235 1.96471 48.7563 0.0850135 3.63276 14.1831 -0.316517 1.31977e-006 1.44538e-006 -1.64443e-006 
-0.000441026 3.9879 8.60738 -0 -82.0004 -0 -0.0167635 -3.43281 -0.153024 -0.0428471 -6.86557 -0.307888 -0.042847 -6.86557 -0.307889 2.38141e-006 17.9985 -1.19017e-006 -0.017929 9.20904 -0.418983 -15.282 16.1196 5.44054 -69.3504 -6.49927 -53.1274 -15.9702 34.8466 0.355615 -42.3439 -22.8118 8.38364 3.76141e-006 -1.80182e-006 -1.83855e-006 2.70671e-006 -1.33098e-006 -1.36254e-006 6.36111e-015 7.95139e-015 -0 3.76141e-006 -1.80182e-006 -1.83855e-006 -0.0146153 -8.57998e-005 -3.17534e-006 0 1.59028e-015 -0 3.76141e-006 -1.80182e-006 -1.83855e-006 -0.0187369 -0.00117444 5.96656e-005 -3.18055e-015 0 -3.18055e-015 3.76141e-006 -1.80182e-006 -1.83855e-006 -0.0122652 -0.0032489 0.000681764 9.54166e-015 -1.59028e-015 3.18055e-015 3.76141e-006 -1.80182e-006 -1.83855e-006 2.70671e-006 -1.33098e-006 -1.36254e-006 6.36111e-015 7.95139e-015 -0 15.2347 16.0887 -5.5013 69.3594 -6.48145 53.1267 15.9827 34.8413 -0.355711 42.3393 -22.8128 -8.38791 -1.27222e-014 -1.27222e-014 -3.18055e-015 -3.18055e-015 -4.77083e-015 -3.18055e-015 -6.36111e-015 -9.54166e-015 -3.18055e-015 -1.27222e-014 -1.27222e-014 -3.18055e-015 0.0149997 -9.34624e-005 3.72567e-006 -3.18055e-015 3.18055e-015 -0 -1.27222e-014 -1.27222e-014 -3.18055e-015 0.0189682 -0.00118941 -5.93111e-005 9.97607e-007 3.69065e-007 -4.3617e-007 -1.27222e-014 -1.27222e-014 -3.18055e-015 0.0122415 -0.00324066 -0.000678631 -3.18055e-015 -4.77083e-015 -3.18055e-015 -1.27222e-014 -1.27222e-014 -3.18055e-015 -3.18055e-015 -4.77083e-015 -3.18055e-015 -6.36111e-015 -9.54166e-015 -3.18055e-015 -16.1831 -14.9946 -48.6124 -1.96773 48.7565 -0.0630565 -2.59103 14.2115 -0.985563 3.47482e-006 1.32421e-006 4.32643e-007 16.4821 -14.7283 49.4018 1.96425 48.7476 0.073606 3.17281 14.1593 0.17439 3.71419e-006 2.19272e-006 8.332e-008 
